<?xml version="1.0" encoding="UTF-8" standalone="no"?>
<!-- Created with Inkscape (http://www.inkscape.org/) -->

<svg
   xmlns:dc="http://purl.org/dc/elements/1.1/"
   xmlns:cc="http://creativecommons.org/ns#"
   xmlns:rdf="http://www.w3.org/1999/02/22-rdf-syntax-ns#"
   xmlns:svg="http://www.w3.org/2000/svg"
   xmlns="http://www.w3.org/2000/svg"
   xmlns:sodipodi="http://sodipodi.sourceforge.net/DTD/sodipodi-0.dtd"
   xmlns:inkscape="http://www.inkscape.org/namespaces/inkscape"
   version="1.1"
   id="svg1440"
   xml:space="preserve"
   width="800"
   height="800"
   viewBox="0 0 800 800"
   sodipodi:docname="logo-element-color-shape.svg"
   inkscape:version="0.92.4 (5da689c313, 2019-01-14)"><metadata
     id="metadata1446"><rdf:RDF><cc:Work
         rdf:about=""><dc:format>image/svg+xml</dc:format><dc:type
           rdf:resource="http://purl.org/dc/dcmitype/StillImage" /><dc:title></dc:title></cc:Work></rdf:RDF></metadata><defs
     id="defs1444"><clipPath
       clipPathUnits="userSpaceOnUse"
       id="clipPath1456"><path
         d="M 0,600 H 600 V 0 H 0 Z"
         id="path1454"
         inkscape:connector-curvature="0" /></clipPath><linearGradient
       x1="0"
       y1="0"
       x2="1"
       y2="0"
       gradientUnits="userSpaceOnUse"
       gradientTransform="matrix(370.53955,0,0,-370.53955,126.021,325.22461)"
       spreadMethod="pad"
       id="linearGradient1480"><stop
         style="stop-opacity:1;stop-color:#1aaeec"
         offset="0"
         id="stop1470" /><stop
         style="stop-opacity:1;stop-color:#4253a7"
         offset="0.297753"
         id="stop1472" /><stop
         style="stop-opacity:1;stop-color:#e70c8d"
         offset="0.646067"
         id="stop1474" /><stop
         style="stop-opacity:1;stop-color:#e33c47"
         offset="0.955056"
         id="stop1476" /><stop
         style="stop-opacity:1;stop-color:#e33c47"
         offset="1"
         id="stop1478" /></linearGradient></defs><sodipodi:namedview
     pagecolor="#ffffff"
     bordercolor="#666666"
     borderopacity="1"
     objecttolerance="10"
     gridtolerance="10"
     guidetolerance="10"
     inkscape:pageopacity="0"
     inkscape:pageshadow="2"
     inkscape:window-width="1920"
     inkscape:window-height="1018"
     id="namedview1442"
     showgrid="false"
     inkscape:zoom="0.75666163"
     inkscape:cx="513.55932"
     inkscape:cy="327.11864"
     inkscape:window-x="-8"
     inkscape:window-y="-8"
     inkscape:window-maximized="1"
     inkscape:current-layer="g1448" /><g
     id="g1448"
     inkscape:groupmode="layer"
     inkscape:label="circles-element-12-publicdomainvectors.org"
     transform="matrix(1.3333333,0,0,-1.3333333,0,800)"><g
       id="g1450"><g
         id="g1452"
         clip-path="url(#clipPath1456)"><g
           id="g1458"><g
             id="g1460"><g
               id="g1466"><g
                 id="g1468"><path
                   d="m 447.452,438.315 c 0,0 -72.903,-12.443 -107.775,-93.648 -2.839,-6.599 -5.157,-13.059 -7.05,-19.373 8.606,0.845 16.812,-1.296 25.204,-2.064 1.302,3.816 2.799,7.72 4.498,11.7 25.614,59.637 71.641,71.998 71.641,71.998 0,0 6.195,-11.445 8.472,-30.875 9.13,-5.111 19.809,-14.218 25.095,-22.57 2.685,50.84 -20.085,84.832 -20.085,84.832 m -60.117,-66.572 c 25.117,-3.643 48.889,-16.734 65.515,-38.508 20.063,-26.284 25.183,-59.279 16.746,-88.805 5.942,-8.624 11.438,-18.774 13.928,-27.58 20.408,40.91 17.27,91.594 -12.353,130.378 -16.67,21.833 -39.195,36.566 -63.698,43.685 -7.359,-5.538 -13.929,-12.12 -20.138,-19.17 M 255.371,481.224 c 0,0 -10.694,-73.179 55.76,-131.439 5.4,-4.737 10.826,-8.938 16.247,-12.69 1.856,8.446 6.427,15.589 9.751,23.334 -3.226,2.417 -6.477,5.044 -9.738,7.892 -48.804,42.789 -46.335,90.383 -46.335,90.383 0,0 12.799,2.355 31.982,-1.485 7.683,7.106 19.642,14.447 29.22,16.893 -47.523,18.265 -86.887,7.112 -86.887,7.112 m 44.736,-77.745 c 11.228,22.762 31.024,41.325 56.87,50.407 31.196,10.96 64.159,5.634 89.632,-11.515 10.039,2.987 21.388,5.079 30.537,4.724 -32.602,32.051 -81.777,44.727 -127.816,28.54 -25.917,-9.107 -46.889,-25.976 -61.232,-47.08 2.995,-8.711 7.223,-16.992 12.009,-25.076 M 155.205,311.805 c 0,0 66.292,-32.784 142.237,12.414 6.175,3.671 11.846,7.533 17.089,11.531 -7.459,4.375 -12.839,10.929 -19.178,16.483 -3.296,-2.321 -6.799,-4.601 -10.514,-6.821 -55.777,-33.193 -100.279,-16.139 -100.279,-16.139 0,0 1.717,12.901 11.295,29.958 -4.384,9.501 -7.669,23.146 -7.036,33.011 -32.057,-39.552 -33.614,-80.437 -33.614,-80.437 m 87.765,18.523 c -18.179,17.711 -29.717,42.274 -30.367,69.661 -0.784,33.057 14.468,62.761 38.651,81.689 0.261,10.469 1.778,21.909 4.942,30.5 -40.557,-21.102 -67.808,-63.953 -66.64,-112.74 0.652,-27.462 10.216,-52.621 25.854,-72.783 9.209,0.156 18.393,1.618 27.56,3.673 m 42.408,-166.14 c 0,0 51.667,52.918 32.148,139.113 -1.583,7.006 -3.505,13.594 -5.685,19.816 -6.466,-5.744 -14.362,-8.835 -21.604,-13.146 1.191,-3.852 2.275,-7.89 3.239,-12.109 14.333,-63.302 -15.64,-100.358 -15.64,-100.358 0,0 -11.737,5.62 -24.999,20 -10.392,-1.233 -24.384,-0.143 -33.57,3.51 27.71,-42.709 66.111,-56.826 66.111,-56.826 m 9.507,89.194 c -22.463,-11.816 -49.388,-15.198 -75.637,-7.355 -31.682,9.471 -55.218,33.155 -65.747,62.001 -9.876,3.485 -20.287,8.464 -27.48,14.126 7.537,-45.092 39.869,-84.251 86.629,-98.216 26.321,-7.866 53.203,-6.546 77.211,2.098 2.697,8.807 4.145,17.991 5.024,27.346 m 171.112,-11.008 c 0,0 -34.362,65.491 -122.368,73.564 -7.152,0.659 -14.013,0.868 -20.604,0.716 3.464,-7.923 3.964,-16.39 5.828,-24.608 4.031,-0.06 8.206,-0.275 12.516,-0.662 64.635,-5.93 90.612,-45.887 90.612,-45.887 0,0 -8.97,-9.428 -26.747,-17.597 -2.037,-10.262 -7.4,-23.234 -13.709,-30.839 49.181,13.154 74.472,45.313 74.472,45.313 m -81.891,36.605 c 4.298,-25.015 -0.805,-51.668 -16.377,-74.208 -18.796,-27.205 -48.595,-42.271 -79.284,-43.369 -6.366,-8.318 -14.318,-16.679 -21.926,-21.771 45.215,-6.767 92.448,11.883 120.179,52.039 15.614,22.601 22.664,48.576 21.864,74.08 -7.541,5.287 -15.83,9.501 -24.456,13.229"
                   style="fill:url(#linearGradient1480);stroke:none"
                   id="path1482"
                   inkscape:connector-curvature="0" /></g></g></g></g></g></g></g></svg>